<svg width="20" height="20" viewBox="0 0 20 20" fill="none" xmlns="http://www.w3.org/2000/svg">
<path d="M1.66699 10.4167C1.66699 7.88334 3.71699 5.83334 6.25033 5.83334H15.0003C16.842 5.83334 18.3337 7.32501 18.3337 9.16668C18.3337 11.0083 16.842 12.5 15.0003 12.5H7.91699C6.76699 12.5 5.83366 11.5667 5.83366 10.4167C5.83366 9.26668 6.76699 8.33334 7.91699 8.33334H14.167V10H7.84199C7.38366 10 7.38366 10.8333 7.84199 10.8333H15.0003C15.917 10.8333 16.667 10.0833 16.667 9.16668C16.667 8.25001 15.917 7.50001 15.0003 7.50001H6.25033C4.64199 7.50001 3.33366 8.80834 3.33366 10.4167C3.33366 12.025 4.64199 13.3333 6.25033 13.3333H14.167V15H6.25033C3.71699 15 1.66699 12.95 1.66699 10.4167Z" fill="#143F5F"/>
</svg>
