<svg width="16" height="16" viewBox="0 0 16 16" fill="none" xmlns="http://www.w3.org/2000/svg">
<path d="M11.4737 6L8.55366 1.62666C8.42699 1.44 8.21366 1.34666 8.00033 1.34666C7.78699 1.34666 7.57366 1.44 7.44699 1.63333L4.52699 6H1.33366C0.966992 6 0.666992 6.3 0.666992 6.66666C0.666992 6.72666 0.673659 6.78666 0.693659 6.84666L2.38699 13.0267C2.54033 13.5867 3.05366 14 3.66699 14H12.3337C12.947 14 13.4603 13.5867 13.6203 13.0267L15.3137 6.84666L15.3337 6.66666C15.3337 6.3 15.0337 6 14.667 6H11.4737ZM6.00033 6L8.00033 3.06666L10.0003 6H6.00033ZM8.00033 11.3333C7.26699 11.3333 6.66699 10.7333 6.66699 10C6.66699 9.26666 7.26699 8.66666 8.00033 8.66666C8.73366 8.66666 9.33366 9.26666 9.33366 10C9.33366 10.7333 8.73366 11.3333 8.00033 11.3333Z" fill="#143F5F" fill-opacity="0.5"/>
</svg>
