<svg width="30" height="30" viewBox="0 0 30 30" fill="none" xmlns="http://www.w3.org/2000/svg">
<path d="M15 30C23.2843 30 30 23.2843 30 15C30 6.71573 23.2843 0 15 0C6.71573 0 0 6.71573 0 15C0 23.2843 6.71573 30 15 30Z" fill="#55ACEE"/>
<path d="M24.1879 10.78C23.5451 11.0651 22.8537 11.2579 22.1285 11.344C22.8689 10.9004 23.4371 10.1985 23.7053 9.36074C23.0125 9.77171 22.2448 10.0699 21.4285 10.2306C20.7744 9.534 19.8426 9.09869 18.8107 9.09869C16.831 9.09869 15.2253 10.7044 15.2253 12.6841C15.2253 12.9651 15.2571 13.2387 15.3186 13.5013C12.3389 13.3518 9.69678 11.9245 7.92827 9.7546C7.6197 10.284 7.44269 10.9004 7.44269 11.5573C7.44269 12.801 8.07613 13.8989 9.03766 14.5417C8.45021 14.5232 7.89698 14.362 7.41381 14.0927C7.41354 14.108 7.41354 14.1232 7.41354 14.1382C7.41354 15.8754 8.64995 17.3244 10.2898 17.6535C9.9893 17.7359 9.67191 17.7795 9.34543 17.7795C9.11387 17.7795 8.88953 17.7573 8.67081 17.7156C9.12697 19.1397 10.4508 20.1764 12.0201 20.2055C10.7928 21.1673 9.24703 21.7403 7.56676 21.7403C7.27798 21.7403 6.99187 21.7235 6.71191 21.6901C8.2978 22.7077 10.1829 23.3011 12.2076 23.3011C18.8025 23.3011 22.409 17.8378 22.409 13.0994C22.409 12.944 22.4055 12.7892 22.3986 12.6357C23.0997 12.1304 23.7074 11.499 24.1879 10.78Z" fill="#F1F2F2"/>
</svg>
