<svg width="30" height="30" viewBox="0 0 30 30" fill="none" xmlns="http://www.w3.org/2000/svg">
<path d="M15 30C23.2843 30 30 23.2843 30 15C30 6.71573 23.2843 0 15 0C6.71573 0 0 6.71573 0 15C0 23.2843 6.71573 30 15 30Z" fill="#CB2027"/>
<path d="M16.2106 20.0863C15.0766 19.9986 14.6001 19.4363 13.7108 18.8964C13.222 21.4609 12.6247 23.9193 10.8553 25.2036C10.3085 21.3275 11.657 18.4162 12.2832 15.326C11.2158 13.5291 12.4115 9.91241 14.663 10.8036C17.4339 11.8994 12.2639 17.4849 15.7347 18.1825C19.3581 18.9109 20.8373 11.8954 18.5901 9.61347C15.3435 6.31896 9.13977 9.5386 9.90264 14.2548C10.0885 15.4078 11.28 15.7578 10.3786 17.3488C8.30071 16.8886 7.6809 15.2498 7.76058 13.0649C7.88919 9.48859 10.9741 6.98449 14.0683 6.63796C17.9815 6.19997 21.6544 8.07491 22.1614 11.7558C22.7317 15.9102 20.3947 20.4093 16.2106 20.0863Z" fill="#F1F2F2"/>
</svg>
