<svg height="32" width="32" xmlns="http://www.w3.org/2000/svg"><path d="M10.246 4.228a.99.99 0 00-.99-.991H3.914a.99.99 0 00-.991.991V9.57c0 .546.443.99.991.99h5.342a.99.99 0 00.99-.99V4.228zm9.207 0a.99.99 0 00-.991-.991h-5.343a.99.99 0 00-.99.991V9.57c0 .546.444.99.99.99h5.343a.99.99 0 00.991-.99V4.228zm9.415 0a.99.99 0 00-.99-.991h-5.342a.99.99 0 00-.991.991V9.57c0 .546.443.99.991.99h5.342a.99.99 0 00.99-.99V4.228zm-18.622 8.996a.99.99 0 00-.99-.99H3.914a.99.99 0 00-.991.99v5.342c0 .549.443.99.991.99h5.342c.547 0 .99-.441.99-.99v-5.342zm9.207 0a.99.99 0 00-.991-.99h-5.343a.99.99 0 00-.99.99v5.342c0 .549.444.99.99.99h5.343a.989.989 0 00.991-.99v-5.342zm9.415 0a.99.99 0 00-.99-.99h-5.342a.99.99 0 00-.991.99v5.342c0 .549.443.99.991.99h5.342c.547 0 .99-.441.99-.99v-5.342zM10.246 22.43a.991.991 0 00-.99-.99H3.914a.991.991 0 00-.991.99v5.344c0 .547.443.99.991.99h5.342a.99.99 0 00.99-.99V22.43zm9.207 0a.991.991 0 00-.991-.99h-5.343a.992.992 0 00-.99.99v5.344c0 .547.444.99.99.99h5.343a.99.99 0 00.991-.99V22.43zm9.415 0a.991.991 0 00-.99-.99h-5.342a.991.991 0 00-.991.99v5.344c0 .547.443.99.991.99h5.342a.99.99 0 00.99-.99V22.43z" fill="#d3d3d3"/></svg>